<svg xmlns="http://www.w3.org/2000/svg" xmlns:xlink="http://www.w3.org/1999/xlink" viewBox="0 0 419.5 370.67"><defs><clipPath id="eb01e466-99bc-4041-88b7-b6e5748d2b6f" transform="translate(-0.08)"><path d="M317.5,1C239.9-3.68,213,61.58,209.83,70.08,207.51,63.66,181.08-4.19,102,.57c-83,5-102,80-102,103C0,213.38,202.09,361.84,213.49,370.13V371s206-154,206-267C419.5,81,400.5,6,317.5,1Z" fill="none"/></clipPath></defs><title>BETTAsset 1</title><g id="b7e90106-6c46-400f-ba1e-7a81ba17a6f0" data-name="Layer 2"><g id="f75098af-8bc1-4fa8-bdb3-127db5e9adce" data-name="Layer 1"><g clip-path="url(#eb01e466-99bc-4041-88b7-b6e5748d2b6f)"><path d="M317.58.67C240-4,213.07,61.25,209.9,69.75,207.58,63.33,181.15-4.52,102.08.24c-83,5-102,80-102,103,0,109.81,202.08,258.27,213.49,266.56v.87s206-154,206-267C419.58,80.67,400.58,5.67,317.58.67Z" transform="translate(-0.08)" fill="#61956b"/><path d="M77.17,82.17H341.28a26,26,0,0,1,26,24.84c2.66,62.1,18.84,191.16-153.16,191.16-163,0-162.15-132.09-162.89-189.68A26,26,0,0,1,77.17,82.17Z" transform="translate(-0.08)" fill="none" stroke="#fff" stroke-miterlimit="10" stroke-width="24"/><path d="M62.65,162.81l32.64.14c58.79,1.22,81.79-23,81.79-51.56V82.17S61.2,76.31,56.64,92.24c-3.44,12-3.15,45.88-2.8,61.92A8.85,8.85,0,0,0,62.65,162.81Z" transform="translate(-0.08)" fill="none" stroke="#fff" stroke-miterlimit="10" stroke-width="24"/><path d="M357.08,170.17S269,211.17,253.26,281a19.53,19.53,0,0,1-19.07,15.21H197.64a18.35,18.35,0,0,1-17-11.44C137.92,180.3,66.08,182.17,66.08,182.17" transform="translate(-0.08)" fill="none" stroke="#fff" stroke-miterlimit="10" stroke-width="24"/><path d="M357.5,162.17l-32.64.13c-58.78,1.22-81.78-23-81.78-51.56V81.52S359,75.66,363.51,91.59c3.44,12,3.15,45.89,2.8,61.93A8.86,8.86,0,0,1,357.5,162.17Z" transform="translate(-0.08)" fill="none" stroke="#fff" stroke-miterlimit="10" stroke-width="24"/></g></g></g></svg>